# xmcd CD database file
# Copyright (C) 1993-1998 Ti Kan
#
# Track frame offsets:
#	150
#	14792
#	30177
#	43060
#	55957
#	66985
#	79892
#	99467
#	123245
#	136587
#	150380
#	165317
#	181965
#	197715
#	210062
#	226745
#	240892
#	258402
#
# Disc length: 3678 seconds
#
# Revision: 1
# Processed by: cddbd v1.4b41PL1 Copyright (c) Steve Scherf et al.
# Submitted via: NotifyCDPlayer(CDDB) 1.51
#
DISCID=d70e5c12
DTITLE=David Allan Coe - I Love Country
DYEAR=1900
DGENRE=
TTITLE0=Willie, Waylon and Me
TTITLE1=Now I Lay Me Down To Cheat
TTITLE2=Would You Lay With Me (In A Field Of Stone)
TTITLE3=This Bottle (In My Hand)
TTITLE4=Just To Prove My Love For You
TTITLE5=What Made You Change Your Mind
TTITLE6=Please Come To Boston
TTITLE7=You Never Even Called Me By My Name
TTITLE8=Take This Job And Shove It Too
TTITLE9=Divers Do It Deeper
TTITLE10=Jack Daniel's, If You Please
TTITLE11=Get a Little Dirt On Your Hands
TTITLE12=Stand By Your Man
TTITLE13=Take It Easy Rider
TTITLE14=Mona Lisa Lost Her Smile
TTITLE15=The Ride
TTITLE16=Love Is A Never Ending War
TTITLE17=Son Of The South
EXTD=
EXTT0=
EXTT1=
EXTT2=
EXTT3=
EXTT4=
EXTT5=
EXTT6=
EXTT7=
EXTT8=
EXTT9=
EXTT10=
EXTT11=
EXTT12=
EXTT13=
EXTT14=
EXTT15=
EXTT16=
EXTT17=
PLAYORDER=
